<svg width="2048" height="1664" viewBox="0 0 2048 1664" fill="none" xmlns="http://www.w3.org/2000/svg">
<g clip-path="url(#clip0_602_9)">
<path d="M212 640L835 1305L535 640H212ZM1024 1412L1373 640H675L1024 1412ZM538 512L742 128H480L192 512H538ZM1213 1305L1836 640H1513L1213 1305ZM683 512H1365L1161 128H887L683 512ZM1510 512H1856L1568 128H1306L1510 512ZM1651 26L2035 538C2044.33 550 2048.67 563.833 2048 579.5C2047.33 595.167 2041.67 608.667 2031 620L1071 1644C1059 1657.33 1043.33 1664 1024 1664C1004.67 1664 989 1657.33 977 1644L16.9998 620C6.33311 608.667 0.666439 595.167 -0.000227869 579.5C-0.666895 563.833 3.66644 550 12.9998 538L397 26C409 8.66667 426 0 448 0H1600C1622 0 1639 8.66667 1651 26Z" fill="#699BF7"/>
</g>
<defs>
<clipPath id="clip0_602_9">
<rect width="2048" height="1664" fill="white"/>
</clipPath>
</defs>
</svg>
