<svg width="128" height="128" viewBox="0 0 128 128" fill="none" xmlns="http://www.w3.org/2000/svg">
<path d="M64.0001 123.94C95.6792 123.94 121.36 98.259 121.36 66.58C121.36 34.9009 95.6792 9.21997 64.0001 9.21997C32.3211 9.21997 6.64014 34.9009 6.64014 66.58C6.64014 98.259 32.3211 123.94 64.0001 123.94Z" fill="#D68F30"/>
<path d="M10.54 81.48V87.34C11.14 88.89 11.81 90.42 12.54 91.9V81.48H10.54ZM17.08 92.51V99.55C17.88 100.68 18.71 101.79 19.58 102.86V92.51H17.08ZM25.74 101.71V109.3C26.71 110.17 27.71 111 28.74 111.8V101.71H25.74ZM36.4 108.7V116.86C37.38 117.4 38.38 117.91 39.4 118.4V108.7H36.4ZM48.49 113.15V121.79C49.48 122.07 50.48 122.32 51.49 122.55V113.15H48.49ZM62.64 114.69V123.9C63.09 123.91 63.54 123.93 64 123.93C64.55 123.93 65.1 123.9 65.64 123.89V114.69H62.64ZM76.79 113.08V122.48C77.8 122.25 78.8 121.99 79.79 121.71V113.08H76.79ZM88.85 108.57V118.28C89.87 117.79 90.87 117.26 91.85 116.71V108.57H88.85ZM99.48 101.52V111.62C100.509 110.816 101.51 109.975 102.48 109.1V101.52H99.48ZM111.09 92.29H108.59V102.64C109.46 101.56 110.3 100.45 111.09 99.31V92.29ZM117.59 81.22H115.59V91.66C116.32 90.15 116.99 88.6 117.59 87.03V81.22Z" fill="#BC6F00"/>
<path d="M64.0001 118.78C95.6792 118.78 121.36 93.0991 121.36 61.4201C121.36 29.741 95.6792 4.06006 64.0001 4.06006C32.3211 4.06006 6.64014 29.741 6.64014 61.4201C6.64014 93.0991 32.3211 118.78 64.0001 118.78Z" fill="#FFF176"/>
<path d="M64 113.67C92.8569 113.67 116.25 90.2769 116.25 61.42C116.25 32.5632 92.8569 9.17004 64 9.17004C35.1431 9.17004 11.75 32.5632 11.75 61.42C11.75 90.2769 35.1431 113.67 64 113.67Z" fill="#F2BC1A"/>
<path d="M11.6499 63.4199C11.2799 56.5399 12.4699 49.5599 14.8699 43.0199C17.3699 36.4999 21.1999 30.4699 26.0299 25.3499C35.7299 15.0899 49.8099 9.13995 63.9999 9.06995C78.1899 9.14995 92.2799 15.0899 101.96 25.3599C106.8 30.4699 110.62 36.5099 113.12 43.0199C115.53 49.5699 116.72 56.5399 116.34 63.4199H116.14C116.12 56.5566 114.762 49.7629 112.14 43.4199C109.514 37.0841 105.679 31.3202 100.85 26.4499C96.0178 21.5845 90.2754 17.7177 83.9499 15.0699C77.6266 12.4298 70.8423 11.0703 63.9899 11.0703C57.1375 11.0703 50.3532 12.4298 44.0299 15.0699C37.7045 17.7177 31.962 21.5845 27.1299 26.4499C22.2975 31.3175 18.4624 37.0821 15.8399 43.4199C13.2183 49.7629 11.8596 56.5566 11.8399 63.4199H11.6499Z" fill="#E08F00"/>
<path d="M64.0001 4.06995C32.3201 4.06995 6.64014 29.7499 6.64014 61.4299C6.64014 93.1099 32.3201 118.79 64.0001 118.79C95.6801 118.79 121.36 93.1099 121.36 61.4299C121.36 29.7499 95.6801 4.06995 64.0001 4.06995ZM64.0001 113.68C35.1401 113.68 11.7501 90.2899 11.7501 61.4299C11.7501 32.5599 35.1401 9.16995 64.0001 9.16995C92.8601 9.16995 116.25 32.5599 116.25 61.4199C116.25 90.2799 92.8601 113.68 64.0001 113.68Z" fill="#FFF176"/>
<path d="M37.9899 21.35L39.2599 25.28L43.3999 23.7V25.28L40.0499 27.71L41.3299 30.05V31.64L37.9899 29.21L34.6399 31.64V30.05L35.9199 27.71L32.5799 25.28V23.7L36.7099 25.28L37.9899 21.35ZM22.0099 43.91L23.2899 47.84L27.4199 46.26V47.84L24.0799 50.27L25.3599 52.62V54.2L22.0099 51.77L18.6699 54.2V52.62L19.9499 50.27L16.5999 47.84V46.26L20.7399 47.84L22.0099 43.91ZM21.5399 71.72L22.8199 75.65L26.9499 74.07V75.65L23.6099 78.08L24.8899 80.43V82.01L21.5399 79.58L18.1999 82.01V80.43L19.4799 78.08L16.1299 75.65V74.07L20.2699 75.65L21.5399 71.72ZM38.5999 93.8L39.8799 97.73L44.0099 96.15V97.73L40.6699 100.16L41.9499 102.5V104.09L38.5999 101.66L35.2599 104.09V102.5L36.5399 100.16L33.1899 97.73V96.15L37.3299 97.73L38.5999 93.8ZM90.0099 21.35L88.7399 25.28L84.5999 23.7V25.28L87.9499 27.71L86.6699 30.05V31.64L90.0099 29.21L93.3599 31.64V30.05L92.0799 27.71L95.4199 25.28V23.7L91.2899 25.28L90.0099 21.35ZM105.99 43.91L104.71 47.84L100.58 46.26V47.84L103.92 50.27L102.64 52.62V54.2L105.99 51.77L109.33 54.2V52.62L108.05 50.27L111.4 47.84V46.26L107.26 47.84L105.99 43.91ZM106.46 71.72L105.18 75.65L101.05 74.07V75.65L104.39 78.08L103.11 80.43V82.01L106.46 79.58L109.8 82.01V80.43L108.52 78.08L111.87 75.65V74.07L107.73 75.65L106.46 71.72ZM89.3999 93.8L88.1199 97.73L83.9899 96.15V97.73L87.3299 100.16L86.0499 102.5V104.09L89.3999 101.66L92.7399 104.09V102.5L91.4599 100.16L94.8099 97.73V96.15L90.6699 97.73L89.3999 93.8Z" fill="#D38200"/>
<path d="M89.4002 92.21L90.6702 96.14H94.8102L91.4602 98.57L92.7402 102.5L89.4002 100.07L86.0502 102.5L87.3302 98.57L83.9902 96.14H88.1202L89.4002 92.21ZM106.46 70.14L107.73 74.07H111.87L108.52 76.5L109.8 80.43L106.46 78L103.11 80.43L104.39 76.5L101.05 74.07H105.18L106.46 70.14ZM105.99 42.33L107.26 46.26H111.4L108.05 48.69L109.33 52.62L105.99 50.19L102.64 52.62L103.92 48.69L100.58 46.26H104.71L105.99 42.33ZM90.0102 19.76L91.2902 23.69H95.4202L92.0802 26.12L93.3602 30.05L90.0102 27.62L86.6702 30.05L87.9502 26.12L84.6002 23.69H88.7402L90.0102 19.76Z" fill="#FFF176"/>
<path d="M64.0501 102.5L65.3301 106.43L69.4601 104.85V106.43L66.1201 108.86L67.4001 111.21V112.79L64.0501 110.36L60.7101 112.79V111.21L61.9901 108.86L58.6401 106.43V104.85L62.7801 106.43L64.0501 102.5Z" fill="#D38200"/>
<path d="M64.0501 100.4L65.3301 104.33H69.4601L66.1201 106.76L67.4001 110.69L64.0501 108.26L60.7101 110.69L61.9901 106.76L58.6401 104.33H62.7801L64.0501 100.4Z" fill="#FFF176"/>
<path d="M64.0501 12.89L65.3301 16.82L69.4601 15.24V16.82L66.1201 19.25L67.4001 21.6V23.18L64.0501 20.75L60.7101 23.18V21.6L61.9901 19.25L58.6401 16.82V15.24L62.7801 16.82L64.0501 12.89Z" fill="#D38200"/>
<path d="M64.0499 11.3101L65.3299 15.2401H69.4599L66.1199 17.6701L67.3999 21.6001L64.0499 19.1701L60.7099 21.6001L61.9899 17.6701L58.6399 15.2401H62.7799L64.0499 11.3101ZM38.5999 92.2101L37.3299 96.1401H33.1899L36.5399 98.5701L35.2599 102.5L38.5999 100.07L41.9499 102.5L40.6699 98.5701L44.0099 96.1401H39.8799L38.5999 92.2101ZM21.5399 70.1401L20.2699 74.0701H16.1299L19.4799 76.5001L18.1999 80.4301L21.5399 78.0001L24.8899 80.4301L23.6099 76.5001L26.9499 74.0701H22.8199L21.5399 70.1401ZM22.0099 42.3301L20.7399 46.2601H16.5999L19.9499 48.6901L18.6699 52.6201L22.0099 50.1901L25.3599 52.6201L24.0799 48.6901L27.4199 46.2601H23.2899L22.0099 42.3301ZM37.9899 19.7601L36.7099 23.6901H32.5799L35.9199 26.1201L34.6399 30.0501L37.9899 27.6201L41.3299 30.0501L40.0499 26.1201L43.3999 23.6901H39.2599L37.9899 19.7601Z" fill="#FFF176"/>
<path d="M95.2199 48.2C95.2199 47.85 32.8399 48.2 32.8399 48.2L32.2799 49.88V52.75C32.2799 53.27 32.6999 53.69 33.2199 53.69H94.7799C95.2999 53.69 95.7199 53.27 95.7199 52.75V49.96L95.2199 48.2ZM95.3099 85.5H33.0999L28.9399 87.59L28.9899 90.28C28.9999 90.57 29.2399 90.81 29.5399 90.81H98.4699C98.7599 90.81 99.0099 90.58 99.0199 90.28L99.0699 87.64L95.3099 85.5Z" fill="#D38200"/>
<path d="M43.1299 77.32H39.5499C38.9599 77.32 38.4799 75.46 38.4799 74.87L44.1899 74.69C44.1899 75.28 43.7099 77.32 43.1299 77.32ZM44.3499 58.01H38.3199C37.8699 58.01 37.4799 57.71 37.3499 57.28L36.8799 53.35H45.7099L45.3099 57.28C45.1899 57.71 44.7999 58.01 44.3499 58.01ZM38.3199 78.51H44.3499C44.7999 78.51 45.6899 78.79 45.8099 79.22C45.8099 79.22 45.7799 81.09 45.7799 81.83C45.7799 82.57 45.4799 83.11 44.8099 83.11H37.8599C37.1899 83.11 36.8899 82.51 36.8899 81.83C36.8899 81.15 36.8599 79.24 36.8599 79.24C36.9899 78.81 37.8699 78.51 38.3199 78.51ZM89.6299 77.32H86.0499C85.4599 77.32 84.9799 75.46 84.9799 74.87L90.6899 74.69C90.6899 75.28 90.2199 77.32 89.6299 77.32ZM90.8499 58.01H84.8199C84.3699 58.01 83.9799 57.71 83.8499 57.28L83.3799 53.35H92.2099L91.8099 57.28C91.6899 57.71 91.2999 58.01 90.8499 58.01ZM84.8199 78.51H90.8499C91.2999 78.51 92.1899 78.79 92.3099 79.22C92.3099 79.22 92.2799 81.09 92.2799 81.83C92.2799 82.57 91.9799 83.11 91.3099 83.11H84.3599C83.6899 83.11 83.3899 82.51 83.3899 81.83C83.3899 81.15 83.3599 79.24 83.3599 79.24C83.4899 78.81 84.3699 78.51 84.8199 78.51ZM74.1299 77.32H70.5499C69.9599 77.32 69.4799 75.46 69.4799 74.87L75.1899 74.69C75.1899 75.28 74.7199 77.32 74.1299 77.32ZM75.3499 58.01H69.3199C68.8699 58.01 68.4799 57.71 68.3499 57.28L67.8799 53.35H76.7099L76.3099 57.28C76.1899 57.71 75.7999 58.01 75.3499 58.01ZM69.3199 78.51H75.3499C75.7999 78.51 76.6899 78.79 76.8099 79.22C76.8099 79.22 76.7799 81.09 76.7799 81.83C76.7799 82.57 76.4799 83.11 75.8099 83.11H68.8599C68.1899 83.11 67.8899 82.51 67.8899 81.83C67.8899 81.15 67.8599 79.24 67.8599 79.24C67.9899 78.81 68.8699 78.51 69.3199 78.51ZM58.6299 77.32H55.0499C54.4599 77.32 53.9799 75.46 53.9799 74.87L59.6899 74.69C59.6899 75.28 59.2199 77.32 58.6299 77.32ZM59.8499 58.01H53.8199C53.3699 58.01 52.9799 57.71 52.8499 57.28L52.3799 53.35H61.2099L60.8099 57.28C60.6899 57.71 60.2999 58.01 59.8499 58.01ZM53.8199 78.51H59.8499C60.2999 78.51 61.1899 78.79 61.3099 79.22C61.3099 79.22 61.2799 81.09 61.2799 81.83C61.2799 82.57 60.9799 83.11 60.3099 83.11H53.3599C52.6899 83.11 52.3899 82.51 52.3899 81.83C52.3899 81.15 52.3599 79.24 52.3599 79.24C52.4899 78.81 53.3699 78.51 53.8199 78.51Z" fill="#D38200"/>
<path d="M95.6698 45.52C95.6698 45.17 95.4898 44.84 95.2198 44.68L64.0398 26.98L32.8198 44.66C32.5198 44.84 32.3298 45.17 32.3298 45.52L32.2798 49.89C32.2798 50.44 32.7298 50.89 33.2798 50.89H94.7098C95.2598 50.89 95.7098 50.44 95.7098 49.89L95.6698 45.52Z" fill="#FFF176"/>
<path d="M87.8402 44.3301L64.0002 30.8L40.1602 44.3301H87.8402Z" fill="#F2BC1A"/>
<path d="M79.07 42.68L64 34.12L48.93 42.68H79.07ZM93.39 82.02H34.61C34.03 82.02 33.48 82.27 33.09 82.7L29.05 87.21C28.77 87.52 28.99 88.01 29.41 88.01H98.59C99 88.01 99.22 87.52 98.95 87.21L94.9 82.7C94.52 82.27 93.96 82.02 93.39 82.02ZM89.63 75.51H86.05C85.46 75.51 84.98 75.03 84.98 74.44V58.46C84.98 57.87 85.46 57.39 86.05 57.39H89.63C90.22 57.39 90.7 57.87 90.7 58.46V74.45C90.7 75.04 90.22 75.51 89.63 75.51ZM90.86 56.2H84.83C84.38 56.2 83.99 55.9 83.86 55.47L83.4 53.88C83.21 53.24 83.7 52.6 84.37 52.6H91.32C91.99 52.6 92.47 53.24 92.29 53.88L91.83 55.47C91.7 55.9 91.3 56.2 90.86 56.2ZM84.82 76.71H90.85C91.3 76.71 91.69 77.01 91.82 77.44L92.28 79.03C92.47 79.67 91.98 80.31 91.31 80.31H84.36C83.69 80.31 83.21 79.67 83.39 79.03L83.85 77.44C83.98 77 84.38 76.71 84.82 76.71ZM43.13 75.51H39.55C38.96 75.51 38.48 75.03 38.48 74.44V58.46C38.48 57.87 38.96 57.39 39.55 57.39H43.13C43.72 57.39 44.2 57.87 44.2 58.46V74.45C44.19 75.04 43.71 75.51 43.13 75.51ZM44.35 56.2H38.32C37.87 56.2 37.48 55.9 37.35 55.47L36.89 53.88C36.7 53.24 37.19 52.6 37.86 52.6H44.81C45.48 52.6 45.96 53.24 45.78 53.88L45.32 55.47C45.19 55.9 44.8 56.2 44.35 56.2ZM38.32 76.71H44.35C44.8 76.71 45.19 77.01 45.32 77.44L45.78 79.03C45.97 79.67 45.48 80.31 44.81 80.31H37.86C37.19 80.31 36.71 79.67 36.89 79.03L37.35 77.44C37.48 77 37.87 76.71 38.32 76.71ZM58.63 75.51H55.05C54.46 75.51 53.98 75.03 53.98 74.44V58.46C53.98 57.87 54.46 57.39 55.05 57.39H58.63C59.22 57.39 59.7 57.87 59.7 58.46V74.45C59.6974 74.732 59.5835 75.0016 59.3831 75.2001C59.1827 75.3987 58.9121 75.51 58.63 75.51ZM59.85 56.2H53.82C53.37 56.2 52.98 55.9 52.85 55.47L52.39 53.88C52.2 53.24 52.69 52.6 53.36 52.6H60.31C60.98 52.6 61.46 53.24 61.28 53.88L60.82 55.47C60.69 55.9 60.3 56.2 59.85 56.2ZM53.82 76.71H59.85C60.3 76.71 60.69 77.01 60.82 77.44L61.28 79.03C61.47 79.67 60.98 80.31 60.31 80.31H53.36C52.69 80.31 52.21 79.67 52.39 79.03L52.85 77.44C52.98 77 53.37 76.71 53.82 76.71ZM74.13 75.51H70.55C69.96 75.51 69.48 75.03 69.48 74.44V58.46C69.48 57.87 69.96 57.39 70.55 57.39H74.13C74.72 57.39 75.2 57.87 75.2 58.46V74.45C75.1974 74.732 75.0835 75.0016 74.8831 75.2001C74.6827 75.3987 74.4121 75.51 74.13 75.51ZM75.35 56.2H69.32C68.87 56.2 68.48 55.9 68.35 55.47L67.89 53.88C67.7 53.24 68.19 52.6 68.86 52.6H75.81C76.48 52.6 76.96 53.24 76.78 53.88L76.32 55.47C76.19 55.9 75.8 56.2 75.35 56.2ZM69.32 76.71H75.35C75.8 76.71 76.19 77.01 76.32 77.44L76.78 79.03C76.97 79.67 76.48 80.31 75.81 80.31H68.86C68.19 80.31 67.71 79.67 67.89 79.03L68.35 77.44C68.48 77 68.88 76.71 69.32 76.71Z" fill="#FFF176"/>
</svg>
