<svg width="20" height="20" viewBox="0 0 20 20" fill="none" xmlns="http://www.w3.org/2000/svg">
<g opacity="0.2">
<path d="M14.6359 3.69195C14.7787 3.54915 14.9614 3.45293 15.1599 3.41595L17.7599 2.93195C17.9192 2.90228 18.0833 2.91176 18.2382 2.95957C18.393 3.00738 18.5339 3.09209 18.6487 3.20642C18.7635 3.32074 18.8488 3.46125 18.8973 3.61586C18.9458 3.77047 18.9559 3.93454 18.9269 4.09395L18.4529 6.69295C18.4163 6.89397 18.3189 7.07894 18.1739 7.22295L10.8069 14.538C10.6191 14.7244 10.365 14.8288 10.1003 14.8282C9.83565 14.8277 9.582 14.7222 9.39495 14.535L7.30695 12.447C7.11948 12.2594 7.01416 12.0051 7.01416 11.74C7.01416 11.4748 7.11948 11.2205 7.30695 11.033L14.6359 3.69195Z" fill="#8194B9"/>
<path fill-rule="evenodd" clip-rule="evenodd" d="M16.542 6.025L16.699 5.164L15.832 5.325L9.42698 11.739L10.105 12.416L16.542 6.025ZM15.16 3.416C14.9615 3.45298 14.7788 3.5492 14.636 3.692L7.30598 11.032C7.21301 11.1249 7.13925 11.2352 7.08892 11.3566C7.0386 11.478 7.0127 11.6081 7.0127 11.7395C7.0127 11.8709 7.0386 12.001 7.08892 12.1224C7.13925 12.2438 7.21301 12.3541 7.30598 12.447L9.39598 14.535C9.58299 14.722 9.83643 14.8272 10.1009 14.8278C10.3653 14.8284 10.6192 14.7242 10.807 14.538L18.174 7.223C18.3193 7.07912 18.417 6.89414 18.454 6.693L18.927 4.094C18.9559 3.93469 18.9457 3.77073 18.8973 3.61622C18.8489 3.4617 18.7637 3.32126 18.649 3.20696C18.5343 3.09266 18.3935 3.00792 18.2389 2.96003C18.0842 2.91213 17.9202 2.90252 17.761 2.932L15.16 3.416Z" fill="#8194B9"/>
<path fill-rule="evenodd" clip-rule="evenodd" d="M7.18218 10.4669C6.90038 10.1861 6.51856 10.0286 6.1207 10.0293C5.72284 10.03 5.34154 10.1886 5.06068 10.4704C4.77981 10.7522 4.62239 11.134 4.62305 11.5319C4.62371 11.9298 4.78238 12.3111 5.06418 12.5919L9.31418 16.8259C9.45371 16.965 9.61926 17.0752 9.80139 17.1503C9.98352 17.2254 10.1787 17.2639 10.3757 17.2636C10.5727 17.2632 10.7677 17.2241 10.9495 17.1484C11.1314 17.0727 11.2966 16.962 11.4357 16.8224C11.5747 16.6829 11.685 16.5173 11.7601 16.3352C11.8351 16.1531 11.8736 15.958 11.8733 15.761C11.873 15.564 11.8339 15.3689 11.7582 15.1871C11.6825 15.0052 11.5717 14.84 11.4322 14.7009L7.18218 10.4669Z" fill="#8194B9"/>
<path fill-rule="evenodd" clip-rule="evenodd" d="M8.93014 14.9469L5.46414 18.5969C5.37233 18.6936 5.26211 18.771 5.13996 18.8245C5.0178 18.878 4.88619 18.9065 4.75285 18.9084C4.61952 18.9102 4.48716 18.8854 4.36356 18.8353C4.23996 18.7853 4.12761 18.711 4.03314 18.6169L3.34214 17.9289C3.24903 17.8362 3.17512 17.726 3.12462 17.6047C3.07412 17.4833 3.04804 17.3533 3.04785 17.2218C3.04767 17.0904 3.07339 16.9603 3.12354 16.8388C3.17369 16.7173 3.24729 16.6069 3.34014 16.5139L6.89314 12.9489C6.98601 12.856 7.0963 12.7822 7.2177 12.7319C7.3391 12.6815 7.46922 12.6556 7.60064 12.6556C7.73206 12.6556 7.86218 12.6815 7.98358 12.7319C8.10498 12.7822 8.21527 12.856 8.30814 12.9489L8.91114 13.5509C9.0956 13.7353 9.20071 13.9845 9.20408 14.2453C9.20744 14.5061 9.10878 14.7578 8.92914 14.9469" fill="#8194B9"/>
</g>
<path fill-rule="evenodd" clip-rule="evenodd" d="M7.91204 12.084C7.81804 11.9905 7.76503 11.8635 7.76465 11.7309C7.76428 11.5983 7.81657 11.471 7.91004 11.377L11.44 7.83499C11.5348 7.74741 11.6597 7.69984 11.7887 7.70223C11.9177 7.70463 12.0408 7.7568 12.1323 7.84785C12.2237 7.93889 12.2764 8.06175 12.2793 8.19074C12.2823 8.31974 12.2352 8.44488 12.148 8.53999L8.61804 12.083C8.52432 12.1764 8.39738 12.2289 8.26504 12.2289C8.13271 12.2289 8.00577 12.1774 7.91204 12.084Z" fill="#8194B9"/>
<path fill-rule="evenodd" clip-rule="evenodd" d="M17.0399 3.50498C17.0545 3.42525 17.0496 3.34315 17.0255 3.26576C17.0013 3.18837 16.9587 3.118 16.9014 3.06073C16.844 3.00345 16.7736 2.96099 16.6961 2.93699C16.6187 2.913 16.5366 2.90819 16.4569 2.92298L13.8569 3.40798C13.7576 3.42647 13.6663 3.47458 13.5949 3.54598L7.19988 9.96398C7.10615 10.0577 7.05349 10.1849 7.05349 10.3175C7.05349 10.4501 7.10615 10.5772 7.19988 10.671L9.32588 12.788C9.41965 12.8817 9.5468 12.9344 9.67938 12.9344C9.81196 12.9344 9.93912 12.8817 10.0329 12.788L16.4269 6.36898C16.4985 6.29731 16.5466 6.2056 16.5649 6.10598L17.0399 3.50498ZM16.2739 1.93998C16.5129 1.89551 16.7591 1.9098 16.9913 1.98161C17.2236 2.05342 17.4349 2.18059 17.6071 2.35219C17.7793 2.52379 17.9072 2.73467 17.9798 2.96667C18.0524 3.19867 18.0675 3.44484 18.0239 3.68398L17.5499 6.28598C17.4955 6.58508 17.3514 6.86058 17.1369 7.07598L10.7429 13.493C10.6038 13.6326 10.4387 13.7435 10.2567 13.8193C10.0748 13.8951 9.87978 13.9343 9.68271 13.9347C9.48565 13.935 9.29044 13.8966 9.10825 13.8215C8.92606 13.7464 8.76045 13.6361 8.62088 13.497L6.49588 11.38C6.35623 11.2409 6.24534 11.0757 6.16956 10.8938C6.09377 10.7119 6.05457 10.5169 6.0542 10.3198C6.05383 10.1227 6.09229 9.92754 6.16739 9.74535C6.24249 9.56315 6.35276 9.39754 6.49188 9.25798L12.8859 2.83998C13.1003 2.6247 13.3751 2.47963 13.6739 2.42398L16.2739 1.93998Z" fill="#8194B9"/>
<path fill-rule="evenodd" clip-rule="evenodd" d="M3.3101 9.61802C3.49546 9.43167 3.71572 9.28369 3.9583 9.18252C4.20089 9.08136 4.46103 9.029 4.72386 9.02845C4.98669 9.02789 5.24706 9.07914 5.49007 9.17928C5.73307 9.27941 5.95396 9.42646 6.1401 9.61202L10.3901 13.847C10.7659 14.2214 10.9776 14.7297 10.9787 15.2601C10.9797 15.7906 10.77 16.2997 10.3956 16.6755C10.0213 17.0513 9.51294 17.263 8.98249 17.2641C8.45205 17.2651 7.94292 17.0554 7.5671 16.681L3.3161 12.446C2.9405 12.0716 2.72897 11.5634 2.72803 11.0331C2.72709 10.5027 2.93683 9.99374 3.3111 9.61802M5.4341 10.321C5.34165 10.2257 5.23115 10.1498 5.10904 10.0977C4.98693 10.0455 4.85566 10.0182 4.72289 10.0174C4.59011 10.0165 4.4585 10.0421 4.33572 10.0926C4.21295 10.1432 4.10146 10.2177 4.00778 10.3117C3.91409 10.4058 3.84008 10.5176 3.79006 10.6406C3.74004 10.7636 3.71501 10.8953 3.71644 11.0281C3.71787 11.1609 3.74572 11.292 3.79837 11.4139C3.85102 11.5358 3.92742 11.646 4.0231 11.738L8.2731 15.972C8.46101 16.1593 8.7156 16.2642 8.98087 16.2637C9.24614 16.2633 9.50036 16.1574 9.6876 15.9695C9.87485 15.7816 9.97978 15.527 9.97931 15.2618C9.97884 14.9965 9.87301 14.7423 9.68511 14.555L5.4341 10.321Z" fill="#8194B9"/>
<path fill-rule="evenodd" clip-rule="evenodd" d="M5.12104 13.533L2.29804 16.367C2.20443 16.4609 2.15196 16.5881 2.15214 16.7207C2.15233 16.8533 2.20517 16.9804 2.29904 17.074L3.00804 17.78C3.10193 17.8736 3.22916 17.9261 3.36174 17.9259C3.49433 17.9257 3.62141 17.8729 3.71504 17.779L6.53804 14.945L7.24704 15.651L4.42304 18.485C4.14218 18.7663 3.76116 18.9246 3.36366 18.9252C2.96616 18.9257 2.58469 18.7685 2.30304 18.488L1.59304 17.783C1.45345 17.6439 1.34264 17.4787 1.26694 17.2967C1.19124 17.1148 1.15214 16.9197 1.15186 16.7226C1.15158 16.5256 1.19013 16.3304 1.26532 16.1482C1.3405 15.9661 1.45084 15.8005 1.59004 15.661L4.41304 12.828L5.12104 13.533Z" fill="#8194B9"/>
</svg>
