<svg width="126" height="16" viewBox="0 0 126 16" fill="none" xmlns="http://www.w3.org/2000/svg">
<path d="M6.54137 15H1.61239V0.454545H6.6408C8.08493 0.454545 9.32546 0.745738 10.3624 1.32812C11.4041 1.90578 12.2043 2.73674 12.763 3.82102C13.3217 4.9053 13.601 6.20265 13.601 7.71307C13.601 9.22822 13.3193 10.5303 12.7559 11.6193C12.1971 12.7083 11.3899 13.544 10.334 14.1264C9.28285 14.7088 8.01864 15 6.54137 15ZM4.24734 12.7202H6.41353C7.42679 12.7202 8.27196 12.5355 8.94904 12.1662C9.62612 11.7921 10.1351 11.2358 10.476 10.4972C10.8169 9.75379 10.9874 8.82576 10.9874 7.71307C10.9874 6.60038 10.8169 5.67708 10.476 4.94318C10.1351 4.20455 9.63086 3.65294 8.96325 3.28835C8.30037 2.91903 7.4765 2.73438 6.49165 2.73438H4.24734V12.7202ZM17.1912 15H14.3787L19.4995 0.454545H22.7523L27.8801 15H25.0676L21.1827 3.4375H21.0691L17.1912 15ZM17.2836 9.29688H24.954V11.4134H17.2836V9.29688ZM37.4664 4.45312C37.4002 3.83286 37.1208 3.34991 36.6284 3.00426C36.1407 2.65862 35.5062 2.4858 34.725 2.4858C34.1757 2.4858 33.7046 2.56866 33.3116 2.73438C32.9186 2.90009 32.618 3.125 32.4096 3.40909C32.2013 3.69318 32.0948 4.01752 32.09 4.3821C32.09 4.68513 32.1587 4.94792 32.296 5.17045C32.438 5.39299 32.6298 5.58239 32.8713 5.73864C33.1127 5.89015 33.3803 6.01799 33.6738 6.12216C33.9674 6.22633 34.2633 6.31392 34.5616 6.38494L35.9252 6.72585C36.4745 6.85369 37.0024 7.02651 37.5091 7.24432C38.0204 7.46212 38.4773 7.73674 38.8798 8.06818C39.287 8.39962 39.609 8.79972 39.8457 9.26847C40.0824 9.73722 40.2008 10.2865 40.2008 10.9162C40.2008 11.7685 39.983 12.5189 39.5474 13.1676C39.1118 13.8116 38.4821 14.3158 37.6582 14.6804C36.8391 15.0402 35.8471 15.2202 34.6824 15.2202C33.5507 15.2202 32.5682 15.045 31.7349 14.6946C30.9063 14.3442 30.2576 13.8329 29.7889 13.1605C29.3249 12.4882 29.0739 11.669 29.036 10.7031H31.6284C31.6663 11.2098 31.8225 11.6312 32.0971 11.9673C32.3717 12.3035 32.7292 12.5545 33.1696 12.7202C33.6146 12.8859 34.1118 12.9688 34.661 12.9688C35.234 12.9688 35.7359 12.8835 36.1667 12.7131C36.6023 12.5379 36.9432 12.2964 37.1895 11.9886C37.4357 11.6761 37.5611 11.3116 37.5659 10.8949C37.5611 10.5161 37.4499 10.2036 37.2321 9.95739C37.0143 9.70644 36.7089 9.49811 36.3159 9.33239C35.9276 9.16193 35.4731 9.01042 34.9522 8.87784L33.2974 8.4517C32.0995 8.14394 31.1525 7.67756 30.4565 7.05256C29.7652 6.42282 29.4196 5.58712 29.4196 4.54545C29.4196 3.68845 29.6516 2.93797 30.1156 2.29403C30.5843 1.65009 31.2212 1.15057 32.0261 0.795454C32.831 0.435605 33.7425 0.255681 34.7605 0.255681C35.7927 0.255681 36.697 0.435605 37.4735 0.795454C38.2548 1.15057 38.868 1.64536 39.313 2.27983C39.7581 2.90956 39.9877 3.634 40.002 4.45312H37.4664ZM42.5499 15V0.454545H45.1848V6.61222H51.9249V0.454545H54.5669V15H51.9249V8.82102H45.1848V15H42.5499ZM57.4327 15V0.454545H63.0009C64.052 0.454545 64.9256 0.620265 65.6216 0.951704C66.3224 1.27841 66.8456 1.72585 67.1912 2.29403C67.5416 2.86222 67.7168 3.50616 67.7168 4.22585C67.7168 4.81771 67.6032 5.32434 67.3759 5.74574C67.1486 6.1624 66.8432 6.50095 66.4597 6.76136C66.0762 7.02178 65.6477 7.20881 65.1742 7.32244V7.46449C65.6903 7.4929 66.1851 7.65151 66.6586 7.94034C67.1368 8.22443 67.5274 8.62689 67.8304 9.14773C68.1335 9.66856 68.285 10.2983 68.285 11.0369C68.285 11.7898 68.1027 12.4669 67.7381 13.0682C67.3735 13.6648 66.8243 14.1359 66.0904 14.4815C65.3565 14.8272 64.4332 15 63.3205 15H57.4327ZM60.0676 12.7983H62.9015C63.8579 12.7983 64.5468 12.616 64.9682 12.2514C65.3944 11.8821 65.6074 11.4086 65.6074 10.831C65.6074 10.4001 65.5009 10.0118 65.2878 9.66619C65.0748 9.31581 64.7717 9.04119 64.3787 8.84233C63.9857 8.63873 63.517 8.53693 62.9725 8.53693H60.0676V12.7983ZM60.0676 6.64062H62.6742C63.1287 6.64062 63.5383 6.55777 63.9029 6.39205C64.2675 6.22159 64.5539 5.98248 64.7623 5.67472C64.9753 5.36222 65.0819 4.9929 65.0819 4.56676C65.0819 4.00331 64.883 3.5393 64.4853 3.17472C64.0923 2.81013 63.5075 2.62784 62.731 2.62784H60.0676V6.64062ZM83.5744 7.72727C83.5744 9.29451 83.2808 10.6368 82.6937 11.7543C82.1113 12.867 81.3159 13.7192 80.3074 14.3111C79.3036 14.9029 78.1648 15.1989 76.8912 15.1989C75.6175 15.1989 74.4764 14.9029 73.4679 14.3111C72.4641 13.7145 71.6686 12.8598 71.0815 11.7472C70.4991 10.6297 70.2079 9.28977 70.2079 7.72727C70.2079 6.16004 70.4991 4.82008 71.0815 3.70739C71.6686 2.58996 72.4641 1.73532 73.4679 1.14347C74.4764 0.551609 75.6175 0.255681 76.8912 0.255681C78.1648 0.255681 79.3036 0.551609 80.3074 1.14347C81.3159 1.73532 82.1113 2.58996 82.6937 3.70739C83.2808 4.82008 83.5744 6.16004 83.5744 7.72727ZM80.9252 7.72727C80.9252 6.62405 80.7524 5.69366 80.4068 4.93608C80.0659 4.17377 79.5924 3.59848 78.9863 3.21023C78.3803 2.81723 77.6819 2.62074 76.8912 2.62074C76.1004 2.62074 75.402 2.81723 74.796 3.21023C74.1899 3.59848 73.7141 4.17377 73.3684 4.93608C73.0275 5.69366 72.8571 6.62405 72.8571 7.72727C72.8571 8.83049 73.0275 9.76326 73.3684 10.5256C73.7141 11.2831 74.1899 11.8584 74.796 12.2514C75.402 12.6397 76.1004 12.8338 76.8912 12.8338C77.6819 12.8338 78.3803 12.6397 78.9863 12.2514C79.5924 11.8584 80.0659 11.2831 80.4068 10.5256C80.7524 9.76326 80.9252 8.83049 80.9252 7.72727ZM87.1522 15H84.3397L89.4604 0.454545H92.7132L97.8411 15H95.0286L91.1436 3.4375H91.03L87.1522 15ZM87.2445 9.29688H94.915V11.4134H87.2445V9.29688ZM99.7569 15V0.454545H105.211C106.329 0.454545 107.266 0.648674 108.024 1.03693C108.786 1.42519 109.362 1.9697 109.75 2.67045C110.143 3.36648 110.339 4.1785 110.339 5.10653C110.339 6.0393 110.14 6.84896 109.743 7.53551C109.35 8.21733 108.77 8.74526 108.003 9.11932C107.236 9.48864 106.293 9.6733 105.176 9.6733H101.291V7.4858H104.821C105.474 7.4858 106.009 7.39583 106.426 7.21591C106.843 7.03125 107.15 6.76373 107.349 6.41335C107.553 6.05824 107.655 5.62263 107.655 5.10653C107.655 4.59044 107.553 4.15009 107.349 3.78551C107.146 3.41619 106.836 3.13684 106.419 2.94744C106.002 2.75331 105.465 2.65625 104.807 2.65625H102.392V15H99.7569ZM107.271 8.40909L110.872 15H107.932L104.395 8.40909H107.271ZM117.694 15H112.765V0.454545H117.793C119.237 0.454545 120.478 0.745738 121.515 1.32812C122.556 1.90578 123.357 2.73674 123.915 3.82102C124.474 4.9053 124.753 6.20265 124.753 7.71307C124.753 9.22822 124.472 10.5303 123.908 11.6193C123.349 12.7083 122.542 13.544 121.486 14.1264C120.435 14.7088 119.171 15 117.694 15ZM115.4 12.7202H117.566C118.579 12.7202 119.424 12.5355 120.101 12.1662C120.778 11.7921 121.287 11.2358 121.628 10.4972C121.969 9.75379 122.14 8.82576 122.14 7.71307C122.14 6.60038 121.969 5.67708 121.628 4.94318C121.287 4.20455 120.783 3.65294 120.116 3.28835C119.453 2.91903 118.629 2.73438 117.644 2.73438H115.4V12.7202Z" fill="#673AB7"/>
</svg>
